<mxfile host="app.diagrams.net" agent="Mozilla/5.0 (Windows NT 10.0; Win64; x64) AppleWebKit/537.36 (KHTML, like Gecko) Chrome/141.0.0.0 Safari/537.36" version="28.2.8">
  <diagram name="Página-1" id="Ib5XMbUv-KU0ZeKhZHQ6">
    <mxGraphModel dx="3827" dy="2291" grid="1" gridSize="10" guides="1" tooltips="1" connect="1" arrows="1" fold="1" page="1" pageScale="1" pageWidth="827" pageHeight="1169" math="0" shadow="0">
      <root>
        <mxCell id="0" />
        <mxCell id="1" parent="0" />
        <mxCell id="ovyJ7wGblwacoTVMloV3-34" style="edgeStyle=orthogonalEdgeStyle;rounded=0;orthogonalLoop=1;jettySize=auto;html=1;exitX=0;exitY=0.5;exitDx=0;exitDy=0;entryX=1;entryY=0.5;entryDx=0;entryDy=0;" parent="1" source="ovyJ7wGblwacoTVMloV3-1" target="ovyJ7wGblwacoTVMloV3-2" edge="1">
          <mxGeometry relative="1" as="geometry" />
        </mxCell>
        <mxCell id="ovyJ7wGblwacoTVMloV3-41" style="edgeStyle=orthogonalEdgeStyle;rounded=0;orthogonalLoop=1;jettySize=auto;html=1;exitX=0;exitY=0.25;exitDx=0;exitDy=0;entryX=0.5;entryY=1;entryDx=0;entryDy=0;" parent="1" source="ovyJ7wGblwacoTVMloV3-1" target="ovyJ7wGblwacoTVMloV3-36" edge="1">
          <mxGeometry relative="1" as="geometry" />
        </mxCell>
        <mxCell id="ovyJ7wGblwacoTVMloV3-42" style="edgeStyle=orthogonalEdgeStyle;rounded=0;orthogonalLoop=1;jettySize=auto;html=1;exitX=0;exitY=0.75;exitDx=0;exitDy=0;entryX=0.5;entryY=0;entryDx=0;entryDy=0;" parent="1" source="ovyJ7wGblwacoTVMloV3-1" target="ovyJ7wGblwacoTVMloV3-38" edge="1">
          <mxGeometry relative="1" as="geometry" />
        </mxCell>
        <mxCell id="ovyJ7wGblwacoTVMloV3-43" style="edgeStyle=orthogonalEdgeStyle;rounded=0;orthogonalLoop=1;jettySize=auto;html=1;exitX=1;exitY=0.75;exitDx=0;exitDy=0;entryX=0.5;entryY=0;entryDx=0;entryDy=0;" parent="1" source="ovyJ7wGblwacoTVMloV3-1" target="ovyJ7wGblwacoTVMloV3-37" edge="1">
          <mxGeometry relative="1" as="geometry" />
        </mxCell>
        <mxCell id="ovyJ7wGblwacoTVMloV3-44" style="edgeStyle=orthogonalEdgeStyle;rounded=0;orthogonalLoop=1;jettySize=auto;html=1;exitX=1;exitY=0.25;exitDx=0;exitDy=0;entryX=0.5;entryY=1;entryDx=0;entryDy=0;" parent="1" source="ovyJ7wGblwacoTVMloV3-1" target="ovyJ7wGblwacoTVMloV3-39" edge="1">
          <mxGeometry relative="1" as="geometry" />
        </mxCell>
        <mxCell id="ovyJ7wGblwacoTVMloV3-1" value="EQUIPO" style="rounded=0;whiteSpace=wrap;html=1;" parent="1" vertex="1">
          <mxGeometry x="354" y="150" width="120" height="60" as="geometry" />
        </mxCell>
        <mxCell id="ovyJ7wGblwacoTVMloV3-35" style="edgeStyle=orthogonalEdgeStyle;rounded=0;orthogonalLoop=1;jettySize=auto;html=1;exitX=0;exitY=0.5;exitDx=0;exitDy=0;entryX=1;entryY=0.5;entryDx=0;entryDy=0;" parent="1" source="ovyJ7wGblwacoTVMloV3-2" target="ovyJ7wGblwacoTVMloV3-8" edge="1">
          <mxGeometry relative="1" as="geometry" />
        </mxCell>
        <mxCell id="ovyJ7wGblwacoTVMloV3-2" value="JUEGA" style="rhombus;whiteSpace=wrap;html=1;" parent="1" vertex="1">
          <mxGeometry x="200" y="140" width="80" height="80" as="geometry" />
        </mxCell>
        <mxCell id="ovyJ7wGblwacoTVMloV3-3" value="&lt;u&gt;Código&lt;/u&gt;" style="ellipse;whiteSpace=wrap;html=1;" parent="1" vertex="1">
          <mxGeometry x="354" y="-250" width="120" height="80" as="geometry" />
        </mxCell>
        <mxCell id="ovyJ7wGblwacoTVMloV3-76" style="edgeStyle=orthogonalEdgeStyle;rounded=0;orthogonalLoop=1;jettySize=auto;html=1;exitX=0.25;exitY=1;exitDx=0;exitDy=0;entryX=0.5;entryY=0;entryDx=0;entryDy=0;" parent="1" source="ovyJ7wGblwacoTVMloV3-5" target="ovyJ7wGblwacoTVMloV3-75" edge="1">
          <mxGeometry relative="1" as="geometry" />
        </mxCell>
        <mxCell id="ovyJ7wGblwacoTVMloV3-77" style="edgeStyle=orthogonalEdgeStyle;rounded=0;orthogonalLoop=1;jettySize=auto;html=1;exitX=0.75;exitY=1;exitDx=0;exitDy=0;entryX=0.5;entryY=0;entryDx=0;entryDy=0;" parent="1" source="ovyJ7wGblwacoTVMloV3-5" target="ovyJ7wGblwacoTVMloV3-72" edge="1">
          <mxGeometry relative="1" as="geometry" />
        </mxCell>
        <mxCell id="ovyJ7wGblwacoTVMloV3-79" style="edgeStyle=orthogonalEdgeStyle;rounded=0;orthogonalLoop=1;jettySize=auto;html=1;exitX=1;exitY=0.25;exitDx=0;exitDy=0;entryX=0;entryY=1;entryDx=0;entryDy=0;" parent="1" source="ovyJ7wGblwacoTVMloV3-5" target="ovyJ7wGblwacoTVMloV3-73" edge="1">
          <mxGeometry relative="1" as="geometry" />
        </mxCell>
        <mxCell id="ovyJ7wGblwacoTVMloV3-80" style="edgeStyle=orthogonalEdgeStyle;rounded=0;orthogonalLoop=1;jettySize=auto;html=1;exitX=1;exitY=0.5;exitDx=0;exitDy=0;entryX=0;entryY=0;entryDx=0;entryDy=0;" parent="1" source="ovyJ7wGblwacoTVMloV3-5" target="ovyJ7wGblwacoTVMloV3-74" edge="1">
          <mxGeometry relative="1" as="geometry" />
        </mxCell>
        <mxCell id="ovyJ7wGblwacoTVMloV3-81" style="edgeStyle=orthogonalEdgeStyle;rounded=0;orthogonalLoop=1;jettySize=auto;html=1;exitX=0;exitY=0.5;exitDx=0;exitDy=0;entryX=1;entryY=0;entryDx=0;entryDy=0;" parent="1" source="ovyJ7wGblwacoTVMloV3-5" target="ovyJ7wGblwacoTVMloV3-71" edge="1">
          <mxGeometry relative="1" as="geometry" />
        </mxCell>
        <mxCell id="ovyJ7wGblwacoTVMloV3-82" style="edgeStyle=orthogonalEdgeStyle;rounded=0;orthogonalLoop=1;jettySize=auto;html=1;exitX=0;exitY=0.25;exitDx=0;exitDy=0;entryX=1;entryY=1;entryDx=0;entryDy=0;" parent="1" source="ovyJ7wGblwacoTVMloV3-5" target="ovyJ7wGblwacoTVMloV3-16" edge="1">
          <mxGeometry relative="1" as="geometry" />
        </mxCell>
        <mxCell id="ovyJ7wGblwacoTVMloV3-5" value="PRESIDENTES" style="rounded=0;whiteSpace=wrap;html=1;" parent="1" vertex="1">
          <mxGeometry x="354" y="490" width="120" height="60" as="geometry" />
        </mxCell>
        <mxCell id="ovyJ7wGblwacoTVMloV3-62" style="edgeStyle=orthogonalEdgeStyle;rounded=0;orthogonalLoop=1;jettySize=auto;html=1;exitX=0.75;exitY=0;exitDx=0;exitDy=0;entryX=0;entryY=0.5;entryDx=0;entryDy=0;" parent="1" source="ovyJ7wGblwacoTVMloV3-6" target="ovyJ7wGblwacoTVMloV3-53" edge="1">
          <mxGeometry relative="1" as="geometry" />
        </mxCell>
        <mxCell id="ovyJ7wGblwacoTVMloV3-63" style="edgeStyle=orthogonalEdgeStyle;rounded=0;orthogonalLoop=1;jettySize=auto;html=1;exitX=1;exitY=0.25;exitDx=0;exitDy=0;entryX=0;entryY=0.5;entryDx=0;entryDy=0;" parent="1" source="ovyJ7wGblwacoTVMloV3-6" target="ovyJ7wGblwacoTVMloV3-61" edge="1">
          <mxGeometry relative="1" as="geometry" />
        </mxCell>
        <mxCell id="ovyJ7wGblwacoTVMloV3-65" style="edgeStyle=orthogonalEdgeStyle;rounded=0;orthogonalLoop=1;jettySize=auto;html=1;exitX=1;exitY=0.75;exitDx=0;exitDy=0;entryX=0;entryY=0.5;entryDx=0;entryDy=0;" parent="1" source="ovyJ7wGblwacoTVMloV3-6" target="ovyJ7wGblwacoTVMloV3-60" edge="1">
          <mxGeometry relative="1" as="geometry" />
        </mxCell>
        <mxCell id="ovyJ7wGblwacoTVMloV3-66" style="edgeStyle=orthogonalEdgeStyle;rounded=0;orthogonalLoop=1;jettySize=auto;html=1;exitX=0.75;exitY=1;exitDx=0;exitDy=0;entryX=0;entryY=0.5;entryDx=0;entryDy=0;" parent="1" source="ovyJ7wGblwacoTVMloV3-6" target="ovyJ7wGblwacoTVMloV3-59" edge="1">
          <mxGeometry relative="1" as="geometry" />
        </mxCell>
        <mxCell id="ovyJ7wGblwacoTVMloV3-6" value="PARTIDOS" style="rounded=0;whiteSpace=wrap;html=1;" parent="1" vertex="1">
          <mxGeometry x="700" y="150" width="120" height="60" as="geometry" />
        </mxCell>
        <mxCell id="ovyJ7wGblwacoTVMloV3-55" style="edgeStyle=orthogonalEdgeStyle;rounded=0;orthogonalLoop=1;jettySize=auto;html=1;exitX=0;exitY=0.75;exitDx=0;exitDy=0;entryX=0.5;entryY=0;entryDx=0;entryDy=0;" parent="1" source="ovyJ7wGblwacoTVMloV3-7" target="ovyJ7wGblwacoTVMloV3-54" edge="1">
          <mxGeometry relative="1" as="geometry" />
        </mxCell>
        <mxCell id="ovyJ7wGblwacoTVMloV3-56" style="edgeStyle=orthogonalEdgeStyle;rounded=0;orthogonalLoop=1;jettySize=auto;html=1;exitX=1;exitY=0.75;exitDx=0;exitDy=0;entryX=0.5;entryY=0;entryDx=0;entryDy=0;" parent="1" source="ovyJ7wGblwacoTVMloV3-7" target="ovyJ7wGblwacoTVMloV3-40" edge="1">
          <mxGeometry relative="1" as="geometry" />
        </mxCell>
        <mxCell id="ovyJ7wGblwacoTVMloV3-7" value="GOLES" style="rounded=0;whiteSpace=wrap;html=1;" parent="1" vertex="1">
          <mxGeometry x="700" y="490" width="120" height="60" as="geometry" />
        </mxCell>
        <mxCell id="ovyJ7wGblwacoTVMloV3-20" style="edgeStyle=orthogonalEdgeStyle;rounded=0;orthogonalLoop=1;jettySize=auto;html=1;exitX=0;exitY=0.25;exitDx=0;exitDy=0;entryX=1;entryY=0.5;entryDx=0;entryDy=0;" parent="1" source="ovyJ7wGblwacoTVMloV3-8" target="ovyJ7wGblwacoTVMloV3-18" edge="1">
          <mxGeometry relative="1" as="geometry" />
        </mxCell>
        <mxCell id="ovyJ7wGblwacoTVMloV3-22" style="edgeStyle=orthogonalEdgeStyle;rounded=0;orthogonalLoop=1;jettySize=auto;html=1;exitX=0.25;exitY=1;exitDx=0;exitDy=0;entryX=1;entryY=0.5;entryDx=0;entryDy=0;" parent="1" source="ovyJ7wGblwacoTVMloV3-8" target="ovyJ7wGblwacoTVMloV3-15" edge="1">
          <mxGeometry relative="1" as="geometry" />
        </mxCell>
        <mxCell id="ovyJ7wGblwacoTVMloV3-23" style="edgeStyle=orthogonalEdgeStyle;rounded=0;orthogonalLoop=1;jettySize=auto;html=1;exitX=0.25;exitY=0;exitDx=0;exitDy=0;entryX=1;entryY=0.5;entryDx=0;entryDy=0;" parent="1" source="ovyJ7wGblwacoTVMloV3-8" target="ovyJ7wGblwacoTVMloV3-19" edge="1">
          <mxGeometry relative="1" as="geometry" />
        </mxCell>
        <mxCell id="ovyJ7wGblwacoTVMloV3-8" value="JUGADOR" style="rounded=0;whiteSpace=wrap;html=1;" parent="1" vertex="1">
          <mxGeometry x="10" y="150" width="120" height="60" as="geometry" />
        </mxCell>
        <mxCell id="ovyJ7wGblwacoTVMloV3-30" style="edgeStyle=orthogonalEdgeStyle;rounded=0;orthogonalLoop=1;jettySize=auto;html=1;exitX=0.5;exitY=0;exitDx=0;exitDy=0;entryX=0.5;entryY=1;entryDx=0;entryDy=0;" parent="1" source="ovyJ7wGblwacoTVMloV3-9" target="ovyJ7wGblwacoTVMloV3-24" edge="1">
          <mxGeometry relative="1" as="geometry" />
        </mxCell>
        <mxCell id="ovyJ7wGblwacoTVMloV3-31" style="edgeStyle=orthogonalEdgeStyle;rounded=0;orthogonalLoop=1;jettySize=auto;html=1;exitX=0.5;exitY=1;exitDx=0;exitDy=0;entryX=0.5;entryY=0;entryDx=0;entryDy=0;" parent="1" source="ovyJ7wGblwacoTVMloV3-9" target="ovyJ7wGblwacoTVMloV3-1" edge="1">
          <mxGeometry relative="1" as="geometry" />
        </mxCell>
        <mxCell id="ovyJ7wGblwacoTVMloV3-9" value="POSEE" style="rhombus;whiteSpace=wrap;html=1;" parent="1" vertex="1">
          <mxGeometry x="374" y="-20" width="80" height="80" as="geometry" />
        </mxCell>
        <mxCell id="ovyJ7wGblwacoTVMloV3-32" style="edgeStyle=orthogonalEdgeStyle;rounded=0;orthogonalLoop=1;jettySize=auto;html=1;exitX=0;exitY=0.5;exitDx=0;exitDy=0;entryX=1;entryY=0.5;entryDx=0;entryDy=0;" parent="1" source="ovyJ7wGblwacoTVMloV3-10" target="ovyJ7wGblwacoTVMloV3-1" edge="1">
          <mxGeometry relative="1" as="geometry" />
        </mxCell>
        <mxCell id="ovyJ7wGblwacoTVMloV3-33" style="edgeStyle=orthogonalEdgeStyle;rounded=0;orthogonalLoop=1;jettySize=auto;html=1;exitX=1;exitY=0.5;exitDx=0;exitDy=0;entryX=0;entryY=0.5;entryDx=0;entryDy=0;" parent="1" source="ovyJ7wGblwacoTVMloV3-10" target="ovyJ7wGblwacoTVMloV3-6" edge="1">
          <mxGeometry relative="1" as="geometry" />
        </mxCell>
        <mxCell id="ovyJ7wGblwacoTVMloV3-10" value="TIENE" style="rhombus;whiteSpace=wrap;html=1;" parent="1" vertex="1">
          <mxGeometry x="560" y="140" width="80" height="80" as="geometry" />
        </mxCell>
        <mxCell id="ovyJ7wGblwacoTVMloV3-50" style="edgeStyle=orthogonalEdgeStyle;rounded=0;orthogonalLoop=1;jettySize=auto;html=1;entryX=0.5;entryY=1;entryDx=0;entryDy=0;" parent="1" source="ovyJ7wGblwacoTVMloV3-11" target="ovyJ7wGblwacoTVMloV3-1" edge="1">
          <mxGeometry relative="1" as="geometry" />
        </mxCell>
        <mxCell id="ovyJ7wGblwacoTVMloV3-52" style="edgeStyle=orthogonalEdgeStyle;rounded=0;orthogonalLoop=1;jettySize=auto;html=1;exitX=0.5;exitY=1;exitDx=0;exitDy=0;entryX=0.5;entryY=0;entryDx=0;entryDy=0;" parent="1" source="ovyJ7wGblwacoTVMloV3-11" target="ovyJ7wGblwacoTVMloV3-5" edge="1">
          <mxGeometry relative="1" as="geometry" />
        </mxCell>
        <mxCell id="ovyJ7wGblwacoTVMloV3-11" value="PERTENECE" style="rhombus;whiteSpace=wrap;html=1;" parent="1" vertex="1">
          <mxGeometry x="374" y="360" width="80" height="80" as="geometry" />
        </mxCell>
        <mxCell id="ovyJ7wGblwacoTVMloV3-57" style="edgeStyle=orthogonalEdgeStyle;rounded=0;orthogonalLoop=1;jettySize=auto;html=1;exitX=0.5;exitY=1;exitDx=0;exitDy=0;entryX=0.5;entryY=0;entryDx=0;entryDy=0;" parent="1" source="ovyJ7wGblwacoTVMloV3-12" target="ovyJ7wGblwacoTVMloV3-7" edge="1">
          <mxGeometry relative="1" as="geometry" />
        </mxCell>
        <mxCell id="ovyJ7wGblwacoTVMloV3-58" style="edgeStyle=orthogonalEdgeStyle;rounded=0;orthogonalLoop=1;jettySize=auto;html=1;exitX=0.5;exitY=0;exitDx=0;exitDy=0;entryX=0.5;entryY=1;entryDx=0;entryDy=0;" parent="1" source="ovyJ7wGblwacoTVMloV3-12" target="ovyJ7wGblwacoTVMloV3-6" edge="1">
          <mxGeometry relative="1" as="geometry" />
        </mxCell>
        <mxCell id="ovyJ7wGblwacoTVMloV3-12" value="TIENE" style="rhombus;whiteSpace=wrap;html=1;" parent="1" vertex="1">
          <mxGeometry x="720" y="360" width="80" height="80" as="geometry" />
        </mxCell>
        <mxCell id="ovyJ7wGblwacoTVMloV3-13" value="Capacidad" style="ellipse;whiteSpace=wrap;html=1;" parent="1" vertex="1">
          <mxGeometry x="509" y="-250" width="120" height="80" as="geometry" />
        </mxCell>
        <mxCell id="ovyJ7wGblwacoTVMloV3-14" value="Nombre" style="ellipse;whiteSpace=wrap;html=1;" parent="1" vertex="1">
          <mxGeometry x="199" y="-250" width="120" height="80" as="geometry" />
        </mxCell>
        <mxCell id="ovyJ7wGblwacoTVMloV3-15" value="Nombre" style="ellipse;whiteSpace=wrap;html=1;" parent="1" vertex="1">
          <mxGeometry x="-140" y="270" width="120" height="80" as="geometry" />
        </mxCell>
        <mxCell id="ovyJ7wGblwacoTVMloV3-16" value="&lt;u&gt;DNI&lt;/u&gt;" style="ellipse;whiteSpace=wrap;html=1;" parent="1" vertex="1">
          <mxGeometry x="220" y="420" width="120" height="80" as="geometry" />
        </mxCell>
        <mxCell id="ovyJ7wGblwacoTVMloV3-17" value="Fecha de Nacimiento" style="ellipse;whiteSpace=wrap;html=1;" parent="1" vertex="1">
          <mxGeometry x="-140" y="180" width="120" height="80" as="geometry" />
        </mxCell>
        <mxCell id="ovyJ7wGblwacoTVMloV3-18" value="Posición" style="ellipse;whiteSpace=wrap;html=1;" parent="1" vertex="1">
          <mxGeometry x="-140" y="90" width="120" height="80" as="geometry" />
        </mxCell>
        <mxCell id="ovyJ7wGblwacoTVMloV3-19" value="&lt;u&gt;Código&lt;/u&gt;" style="ellipse;whiteSpace=wrap;html=1;" parent="1" vertex="1">
          <mxGeometry x="-140" width="120" height="80" as="geometry" />
        </mxCell>
        <mxCell id="ovyJ7wGblwacoTVMloV3-21" style="edgeStyle=orthogonalEdgeStyle;rounded=0;orthogonalLoop=1;jettySize=auto;html=1;exitX=0;exitY=0.75;exitDx=0;exitDy=0;entryX=0.995;entryY=0.602;entryDx=0;entryDy=0;entryPerimeter=0;" parent="1" source="ovyJ7wGblwacoTVMloV3-8" target="ovyJ7wGblwacoTVMloV3-17" edge="1">
          <mxGeometry relative="1" as="geometry" />
        </mxCell>
        <mxCell id="ovyJ7wGblwacoTVMloV3-26" style="edgeStyle=orthogonalEdgeStyle;rounded=0;orthogonalLoop=1;jettySize=auto;html=1;exitX=0.25;exitY=0;exitDx=0;exitDy=0;entryX=0.5;entryY=1;entryDx=0;entryDy=0;" parent="1" source="ovyJ7wGblwacoTVMloV3-24" target="ovyJ7wGblwacoTVMloV3-14" edge="1">
          <mxGeometry relative="1" as="geometry" />
        </mxCell>
        <mxCell id="ovyJ7wGblwacoTVMloV3-27" style="edgeStyle=orthogonalEdgeStyle;rounded=0;orthogonalLoop=1;jettySize=auto;html=1;exitX=0.75;exitY=0;exitDx=0;exitDy=0;entryX=0.5;entryY=1;entryDx=0;entryDy=0;" parent="1" source="ovyJ7wGblwacoTVMloV3-24" target="ovyJ7wGblwacoTVMloV3-13" edge="1">
          <mxGeometry relative="1" as="geometry" />
        </mxCell>
        <mxCell id="ovyJ7wGblwacoTVMloV3-29" style="edgeStyle=orthogonalEdgeStyle;rounded=0;orthogonalLoop=1;jettySize=auto;html=1;exitX=0.5;exitY=0;exitDx=0;exitDy=0;entryX=0.5;entryY=1;entryDx=0;entryDy=0;" parent="1" source="ovyJ7wGblwacoTVMloV3-24" target="ovyJ7wGblwacoTVMloV3-3" edge="1">
          <mxGeometry relative="1" as="geometry" />
        </mxCell>
        <mxCell id="ovyJ7wGblwacoTVMloV3-24" value="ESTADIO" style="rounded=0;whiteSpace=wrap;html=1;" parent="1" vertex="1">
          <mxGeometry x="354" y="-130" width="120" height="60" as="geometry" />
        </mxCell>
        <mxCell id="ovyJ7wGblwacoTVMloV3-36" value="Nombre" style="ellipse;whiteSpace=wrap;html=1;" parent="1" vertex="1">
          <mxGeometry x="270" y="60" width="120" height="80" as="geometry" />
        </mxCell>
        <mxCell id="ovyJ7wGblwacoTVMloV3-37" value="Ciudad" style="ellipse;whiteSpace=wrap;html=1;" parent="1" vertex="1">
          <mxGeometry x="440" y="220" width="120" height="80" as="geometry" />
        </mxCell>
        <mxCell id="ovyJ7wGblwacoTVMloV3-38" value="Año fundación" style="ellipse;whiteSpace=wrap;html=1;" parent="1" vertex="1">
          <mxGeometry x="270" y="220" width="120" height="80" as="geometry" />
        </mxCell>
        <mxCell id="ovyJ7wGblwacoTVMloV3-39" value="&lt;u&gt;Código&lt;/u&gt;" style="ellipse;whiteSpace=wrap;html=1;" parent="1" vertex="1">
          <mxGeometry x="440" y="60" width="120" height="80" as="geometry" />
        </mxCell>
        <mxCell id="ovyJ7wGblwacoTVMloV3-40" value="Descripción del gol" style="ellipse;whiteSpace=wrap;html=1;" parent="1" vertex="1">
          <mxGeometry x="780" y="570" width="120" height="80" as="geometry" />
        </mxCell>
        <mxCell id="ovyJ7wGblwacoTVMloV3-45" value="1,n" style="text;html=1;whiteSpace=wrap;strokeColor=none;fillColor=none;align=center;verticalAlign=middle;rounded=0;" parent="1" vertex="1">
          <mxGeometry x="210" y="110" width="60" height="30" as="geometry" />
        </mxCell>
        <mxCell id="ovyJ7wGblwacoTVMloV3-46" value="n,1" style="text;html=1;whiteSpace=wrap;strokeColor=none;fillColor=none;align=center;verticalAlign=middle;rounded=0;" parent="1" vertex="1">
          <mxGeometry x="120" y="150" width="60" height="30" as="geometry" />
        </mxCell>
        <mxCell id="ovyJ7wGblwacoTVMloV3-47" value="1,1" style="text;html=1;whiteSpace=wrap;strokeColor=none;fillColor=none;align=center;verticalAlign=middle;rounded=0;" parent="1" vertex="1">
          <mxGeometry x="280" y="150" width="60" height="30" as="geometry" />
        </mxCell>
        <mxCell id="ovyJ7wGblwacoTVMloV3-51" value="1,1" style="text;html=1;whiteSpace=wrap;strokeColor=none;fillColor=none;align=center;verticalAlign=middle;rounded=0;" parent="1" vertex="1">
          <mxGeometry x="440" y="385" width="60" height="30" as="geometry" />
        </mxCell>
        <mxCell id="ovyJ7wGblwacoTVMloV3-53" value="&lt;u&gt;Código&lt;/u&gt;" style="ellipse;whiteSpace=wrap;html=1;" parent="1" vertex="1">
          <mxGeometry x="890" width="120" height="80" as="geometry" />
        </mxCell>
        <mxCell id="ovyJ7wGblwacoTVMloV3-54" value="&lt;u&gt;Momento del gol&lt;/u&gt;" style="ellipse;whiteSpace=wrap;html=1;" parent="1" vertex="1">
          <mxGeometry x="620" y="570" width="120" height="80" as="geometry" />
        </mxCell>
        <mxCell id="ovyJ7wGblwacoTVMloV3-59" value="Goles de visita" style="ellipse;whiteSpace=wrap;html=1;" parent="1" vertex="1">
          <mxGeometry x="890" y="270" width="120" height="80" as="geometry" />
        </mxCell>
        <mxCell id="ovyJ7wGblwacoTVMloV3-60" value="Goles en casa" style="ellipse;whiteSpace=wrap;html=1;" parent="1" vertex="1">
          <mxGeometry x="890" y="180" width="120" height="80" as="geometry" />
        </mxCell>
        <mxCell id="ovyJ7wGblwacoTVMloV3-61" value="Fecha del partido" style="ellipse;whiteSpace=wrap;html=1;" parent="1" vertex="1">
          <mxGeometry x="890" y="90" width="120" height="80" as="geometry" />
        </mxCell>
        <mxCell id="ovyJ7wGblwacoTVMloV3-67" value="1,n" style="text;html=1;whiteSpace=wrap;strokeColor=none;fillColor=none;align=center;verticalAlign=middle;rounded=0;" parent="1" vertex="1">
          <mxGeometry x="490" y="180" width="60" height="30" as="geometry" />
        </mxCell>
        <mxCell id="ovyJ7wGblwacoTVMloV3-68" value="1,1" style="text;html=1;whiteSpace=wrap;strokeColor=none;fillColor=none;align=center;verticalAlign=middle;rounded=0;" parent="1" vertex="1">
          <mxGeometry x="700" y="210" width="60" height="30" as="geometry" />
        </mxCell>
        <mxCell id="ovyJ7wGblwacoTVMloV3-70" value="0,n" style="text;html=1;whiteSpace=wrap;strokeColor=none;fillColor=none;align=center;verticalAlign=middle;rounded=0;" parent="1" vertex="1">
          <mxGeometry x="750" y="460" width="60" height="30" as="geometry" />
        </mxCell>
        <mxCell id="ovyJ7wGblwacoTVMloV3-71" value="Nombre" style="ellipse;whiteSpace=wrap;html=1;" parent="1" vertex="1">
          <mxGeometry x="220" y="510" width="120" height="80" as="geometry" />
        </mxCell>
        <mxCell id="ovyJ7wGblwacoTVMloV3-72" value="Fecha de nacimiento" style="ellipse;whiteSpace=wrap;html=1;" parent="1" vertex="1">
          <mxGeometry x="420" y="590" width="120" height="80" as="geometry" />
        </mxCell>
        <mxCell id="ovyJ7wGblwacoTVMloV3-73" value="Año del presidente" style="ellipse;whiteSpace=wrap;html=1;" parent="1" vertex="1">
          <mxGeometry x="490" y="415" width="120" height="80" as="geometry" />
        </mxCell>
        <mxCell id="ovyJ7wGblwacoTVMloV3-74" value="Equipo que preside" style="ellipse;whiteSpace=wrap;html=1;" parent="1" vertex="1">
          <mxGeometry x="490" y="510" width="120" height="80" as="geometry" />
        </mxCell>
        <mxCell id="ovyJ7wGblwacoTVMloV3-75" value="Apellidos" style="ellipse;whiteSpace=wrap;html=1;" parent="1" vertex="1">
          <mxGeometry x="294" y="590" width="126" height="80" as="geometry" />
        </mxCell>
      </root>
    </mxGraphModel>
  </diagram>
</mxfile>
